<?xml version="1.0" standalone="yes"?>
<svg xmlns="http://www.w3.org/2000/svg" width="1280" height="1274">
<path style="fill:#4b3120; stroke:none;" d="M0 0L0 1090L29 1090L29 1274L30 1274L30 1090L31 1090L31 1274L32 1274L32 1251L33 1251L33 1274L210 1274L210 1256L211 1256L211 1274L243 1274L243 1243L244 1243L244 1274L302 1274C299.299 1262.65 299.299 1245.35 302 1234L303 1234L303 1239C310.39 1237.63 327.939 1234.41 334 1239L335 1239L335 1221L336 1221L336 1274L577 1274L577 1212L578 1212L578 1235L610 1233L610 1223L611 1223L611 1274L806 1274L806 1226L807 1226L807 1238L839 1241L839 1247L840 1247L840 1213L841 1213L841 1274L852 1274L852 1213L853 1213L853 1231L885 1233L885 1241L886 1241L886 1201L887 1201L887 1274L898 1274L898 1231L899 1231L899 1246L932 1249L932 1231L933 1231L933 1274L990 1274L990 1244L991 1244L991 1274L992 1274L992 1268L1022 1271L1022 1273L994 1273L994 1274L1023 1274L1023 1261L1024 1261L1024 1274L1036 1274L1036 1233L1037 1233L1037 1264L1038 1264L1038 1258C1045.8 1258.02 1064.37 1256.12 1068 1264L1069 1264L1069 1243L1070 1243L1070 1274L1128 1274L1128 1236L1129 1236L1129 1254L1130 1254L1130 1250L1160 1254L1160 1261L1161 1261L1161 1229L1162 1229L1162 1274L1220 1274L1220 1248L1221 1248L1221 1263L1222 1263L1222 1259L1246 1263L1247 1263L1247 1245L1248 1245L1248 1274L1249 1274L1249 1090L1250 1090L1250 1274L1251 1274L1251 1090L1280 1090L1280 0L757 0L757 1L771 1L771 2L660 0L665 2L665 3L660 3L660 19L645 18L645 0L641 0L641 18L637 18L637 19C698.748 19.1639 760.475 22.8712 822 27.0895C848.541 28.9092 875.395 34 902 34L902 35L891 35L891 38L895 38L895 39L830 34.0895L690 28L641 27L624 29L629 28L629 44L613 44L613 29L623 27L497 31.0895L385 39L385 38L387 35L378 35L378 34C412.602 34 448.533 28.4502 483 25.1698C532.306 20.4772 582.437 20 632 20L632 0L629 0L629 18L613 19L613 1L509 2L509 1L523 1C511.068 -4.00684 489.991 0 477 0L370 0L0 0z"/>
<path style="fill:#f5c025; stroke:none;" d="M509 1L509 2L543 1L509 1z"/>
<path style="fill:#729d99; stroke:none;" d="M573 0L574 1L573 0z"/>
<path style="fill:#f5c025; stroke:none;" d="M574 0L574 1L591 1L574 0z"/>
<path style="fill:#718b78; stroke:none;" d="M591 0L592 1L591 0z"/>
<path style="fill:#b22c18; stroke:none;" d="M604 0L604 1L607 1L604 0M608 0L608 1L613 1L613 19L629 18L629 0L608 0M632 0L632 20L646 20L646 19L637 19L637 18L641 18L641 0L632 0M645 0L645 18L660 19L660 3L665 3L645 0M663 0L664 1L663 0M666 0L666 1L669 1L666 0z"/>
<path style="fill:#729d99; stroke:none;" d="M689 0L690 1L689 0z"/>
<path style="fill:#f5c025; stroke:none;" d="M690 0L690 1L706 1L690 0z"/>
<path style="fill:#729d99; stroke:none;" d="M706 0L707 1L706 0z"/>
<path style="fill:#f5c025; stroke:none;" d="M737 0L737 1L771 2L737 0z"/>
<path style="fill:#718b78; stroke:none;" d="M552 1L552 2L568 2L552 1M712 1L712 2L728 2L712 1z"/>
<path style="fill:#f5c025; stroke:none;" d="M477 3L477 4L505 3L477 3M528 2L528 3L536 3L528 2z"/>
<path style="fill:#b22c18; stroke:none;" d="M591 2L592 3L591 2z"/>
<path style="fill:#f5c025; stroke:none;" d="M744 2L744 3L752 3L744 2M775 2L775 3L803 4L775 2z"/>
<path style="fill:#b22c18; stroke:none;" d="M511 3L512 4L511 3z"/>
<path style="fill:#718b78; stroke:none;" d="M512 3L512 4L522 4L512 3M758 3L758 4L769 4L758 3z"/>
<path style="fill:#f5c025; stroke:none;" d="M450 5L450 6L473 5L450 5M493 4L493 5L499 5L493 4z"/>
<path style="fill:#718b78; stroke:none;" d="M499 4L500 5L499 4M780 4L781 5L780 4z"/>
<path style="fill:#f5c025; stroke:none;" d="M781 4L781 5L787 5L781 4M807 4L807 5L830 6L807 4z"/>
<path style="fill:#718b78; stroke:none;" d="M479 5L479 6L488 6L479 5z"/>
<path style="fill:#b22c18; stroke:none;" d="M488 5L489 6L488 5M791 5L792 6L791 5z"/>
<path style="fill:#718b78; stroke:none;" d="M792 5L792 6L801 6L792 5z"/>
<path style="fill:#f5c025; stroke:none;" d="M426 7L426 8L447 7L426 7M464 6L464 7L468 7L464 6z"/>
<path style="fill:#729d99; stroke:none;" d="M468 6L469 7L468 6M811 6L812 7L811 6z"/>
<path style="fill:#f5c025; stroke:none;" d="M812 6L812 7L816 7L812 6M833 6L833 7L854 8L833 6z"/>
<path style="fill:#718b78; stroke:none;" d="M453 7L453 8L460 8L453 7M820 7L820 8L827 8L820 7z"/>
<path style="fill:#b22c18; stroke:none;" d="M827 7L828 8L827 7z"/>
<path style="fill:#f5c025; stroke:none;" d="M403 9L403 10L423 9L403 9M438 8L438 9L442 9L438 8z"/>
<path style="fill:#729d99; stroke:none;" d="M442 8L443 9L442 8M837 8L838 9L837 8z"/>
<path style="fill:#f5c025; stroke:none;" d="M838 8L838 9L842 9L838 8M857 8L857 9L877 10L857 8z"/>
<path style="fill:#718b78; stroke:none;" d="M428 9L428 10L434 10L428 9M846 9L846 10L852 10L846 9z"/>
<path style="fill:#f5c025; stroke:none;" d="M383 11L383 12L401 11L383 11M415 10L415 11L419 11L415 10z"/>
<path style="fill:#718b78; stroke:none;" d="M419 10L420 11L419 10M860 10L861 11L860 10z"/>
<path style="fill:#f5c025; stroke:none;" d="M861 10L861 11L865 11L861 10M879 10L879 11L897 12L879 10z"/>
<path style="fill:#718b78; stroke:none;" d="M406 11L406 12L412 12L406 11M868 11L868 12L874 12L868 11z"/>
<path style="fill:#f5c025; stroke:none;" d="M363 13L363 14L381 13L363 13M393 12L393 13L397 13L393 12M883 12L883 13L887 13L883 12M899 12L899 13L917 14L899 12z"/>
<path style="fill:#718b78; stroke:none;" d="M385 13L385 14L390 14L385 13M890 13L890 14L895 14L890 13z"/>
<path style="fill:#f5c025; stroke:none;" d="M345 15L345 16L361 15L345 15M374 14L374 15L377 15L374 14M903 14L903 15L906 15L903 14M919 14L919 15L935 16L919 14z"/>
<path style="fill:#718b78; stroke:none;" d="M366 15L366 16L370 16L366 15M910 15L910 16L914 16L910 15z"/>
<path style="fill:#b22c18; stroke:none;" d="M914 15L915 16L914 15z"/>
<path style="fill:#f5c025; stroke:none;" d="M327 17L327 18L343 17L327 17M354 16L354 17L358 17L354 16M922 16L922 17L926 17L922 16M937 16L937 17L953 18L937 16z"/>
<path style="fill:#b22c18; stroke:none;" d="M346 17L347 18L346 17z"/>
<path style="fill:#718b78; stroke:none;" d="M347 17L347 18L351 18L347 17M929 17L929 18L934 18L929 17z"/>
<path style="fill:#f5c025; stroke:none;" d="M310 19L310 20L326 19L310 19M337 18L337 19L340 19L337 18M940 18L940 19L943 19L940 18M955 18L955 19L970 20L955 18z"/>
<path style="fill:#718b78; stroke:none;" d="M329 19L329 20L334 20L329 19z"/>
<path style="fill:#b22c18; stroke:none;" d="M647 19L647 20L650 20L647 19z"/>
<path style="fill:#718b78; stroke:none;" d="M946 19L946 20L950 20L946 19z"/>
<path style="fill:#f5c025; stroke:none;" d="M295 21L295 22L309 21L295 21M320.667 20.3334L321.333 20.6666L320.667 20.3334z"/>
<path style="fill:#718b78; stroke:none;" d="M322 20L323 21L322 20z"/>
<path style="fill:#b22c18; stroke:none;" d="M579 20L579 21L605 21L579 20z"/>
<path style="fill:#718b78; stroke:none;" d="M527 23L527 24L538 24L538 28L517 29L517 30L568 27.9607L739 28L740 23C668.892 17.3876 598.089 23 527 23z"/>
<path style="fill:#b22c18; stroke:none;" d="M675.667 20.3334L676.333 20.6666L675.667 20.3334M678 20L678 21L699 21L678 20z"/>
<path style="fill:#718b78; stroke:none;" d="M957 20L958 21L957 20z"/>
<path style="fill:#f5c025; stroke:none;" d="M958.667 20.3334L959.333 20.6666L958.667 20.3334M971 20L971 21L985 22L971 20z"/>
<path style="fill:#718b78; stroke:none;" d="M313 21L313 22L316 22L313 21z"/>
<path style="fill:#b22c18; stroke:none;" d="M552 21L552 22L570 22L552 21M571.667 21.3334L572.333 21.6666L571.667 21.3334M707 21L707 22L727 22L707 21z"/>
<path style="fill:#718b78; stroke:none;" d="M964 21L964 22L968 22L964 21z"/>
<path style="fill:#f5c025; stroke:none;" d="M279 23L279 24L293 23L279 23M303 22L303 23L306 23L303 22z"/>
<path style="fill:#b22c18; stroke:none;" d="M532 22L532 23L545 23L532 22M735 22L735 23L740 23L739 28L720 28L720 29L755 28L755 29L747 29L747 30L774 29L774 30L768 30L768 31L895 39L895 38L891 38L891 35L902 35L902 34L781 26L781 25L783 25L783 24L760 25L760 24L768 24L768 23L741 24L741 23L748 23L735 22z"/>
<path style="fill:#f5c025; stroke:none;" d="M974 22L974 23L977 23L974 22M987 22L987 23L1001 24L987 22z"/>
<path style="fill:#718b78; stroke:none;" d="M297 23L297 24L300 24L297 23z"/>
<path style="fill:#b22c18; stroke:none;" d="M513 23L513 24L526 24L526 25L497 24L497 25L499 25L499 26L378 34L378 35L387 35L385 38L385 39L494 32L494 31L490 31L490 30L513 31L513 30L506 30L506 29L538 28L538 24L513 23M545 23L546 24L545 23M549 23L549 27L557 27L557 23L549 23M722 23L722 27L726 27L726 23L722 23z"/>
<path style="fill:#718b78; stroke:none;" d="M741 23L741 24L754 24L741 23M980 23L980 24L983 24L980 23z"/>
<path style="fill:#f5c025; stroke:none;" d="M249 27L249 28L277 25L249 27M287 24L287 25L290 25L287 24z"/>
<path style="fill:#718b78; stroke:none;" d="M508 24L509 25L508 24M511 24L511 25L526 25L511 24M754 24L755 25L754 24M760 24L760 25L769 25L760 24M771 24L772 25L771 24z"/>
<path style="fill:#f5c025; stroke:none;" d="M990.667 24.3334L991.333 24.6666L990.667 24.3334z"/>
<path style="fill:#729d99; stroke:none;" d="M992 24L993 25L992 24z"/>
<path style="fill:#f5c025; stroke:none;" d="M1003 24L1003 25L1017 26L1003 24z"/>
<path style="fill:#718b78; stroke:none;" d="M281 25L281 26L285 26L281 25M492 25L493 26L492 25M494 25L494 26L499 26L494 25M781 25L781 26L787 26L781 25M995 25L995 26L999 26L995 25z"/>
<path style="fill:#f5c025; stroke:none;" d="M272.667 26.3334L273.333 26.6666L272.667 26.3334z"/>
<path style="fill:#718b78; stroke:none;" d="M274 26L275 27L274 26M481 26L482 27L481 26z"/>
<path style="fill:#b22c18; stroke:none;" d="M729 26L729 27L732 27L729 26z"/>
<path style="fill:#718b78; stroke:none;" d="M798 26L799 27L798 26M1005 26L1006 27L1005 26z"/>
<path style="fill:#f5c025; stroke:none;" d="M1006.67 26.3334L1007.33 26.6666L1006.67 26.3334M1018 26L1018 27L1031 28L1018 26z"/>
<path style="fill:#718b78; stroke:none;" d="M266 27L266 28L269 28L266 27z"/>
<path style="fill:#b22c18; stroke:none;" d="M540 27L541 28L540 27M572 27L572 28L610 28C599.964 23.7887 582.911 27 572 27M613 27L613 28L616 28L613 27M619.667 27.3334L620.333 27.6666L619.667 27.3334M623 27L613 29L613 44L629 44L629 28L623 27M659 27L660 28L659 27M665.667 27.3334L666.333 27.6666L665.667 27.3334M675.667 27.3334L676.333 27.6666L675.667 27.3334M678 27L678 28L706 28L678 27M707 27L708 28L707 27z"/>
<path style="fill:#718b78; stroke:none;" d="M1011 27L1011 28L1014 28L1011 27z"/>
<path style="fill:#f5c025; stroke:none;" d="M235 29L235 30L248 29L235 29M257 28L257 29L260 29L257 28z"/>
<path style="fill:#b22c18; stroke:none;" d="M541 28L541 29L560 29L541 28M632 28L632 44L641 44L641 28L632 28M645 28L645 44L660 44L660 29L645 28z"/>
<path style="fill:#718b78; stroke:none;" d="M740 28L740 29L755 29L740 28z"/>
<path style="fill:#f5c025; stroke:none;" d="M1020 28L1020 29L1023 29L1020 28M1032 28L1032 29L1045 30L1032 28z"/>
<path style="fill:#718b78; stroke:none;" d="M252 29L252 30L255 30L252 29M506 29L506 30L516 30L506 29z"/>
<path style="fill:#b22c18; stroke:none;" d="M520 29L520 30L534 30L520 29M596 29L597 30L596 29z"/>
<path style="fill:#718b78; stroke:none;" d="M761.667 29.3334L762.333 29.6666L761.667 29.3334M764 29L764 30L774 30L764 29M1025 29L1025 30L1028 30L1025 29z"/>
<path style="fill:#f5c025; stroke:none;" d="M215 32L215 33L234 31L215 32M243 30L243 31L246 31L243 30z"/>
<path style="fill:#718b78; stroke:none;" d="M490 30L490 31L497 31L490 30M783.667 30.3334L784.333 30.6666L783.667 30.3334M788 30L789 31L788 30z"/>
<path style="fill:#f5c025; stroke:none;" d="M1035.67 30.3334L1036.33 30.6666L1035.67 30.3334M1046 30L1046 31L1059 32L1046 30z"/>
<path style="fill:#718b78; stroke:none;" d="M237 31L237 32L240 32L237 31M1040 31L1040 32L1043 32L1040 31z"/>
<path style="fill:#f5c025; stroke:none;" d="M229.667 32.3334L230.333 32.6666L229.667 32.3334M1049.67 32.3334L1050.33 32.6666L1049.67 32.3334M1060 32L1060 33L1065 33L1060 32M209 33L209 34L214 34L209 33z"/>
<path style="fill:#718b78; stroke:none;" d="M224.667 33.3334L225.333 33.6666L224.667 33.3334M1054.67 33.3334L1055.33 33.6666L1054.67 33.3334z"/>
<path style="fill:#f5c025; stroke:none;" d="M1066 33L1066 34L1072 34L1066 33M195 35L195 36L207 35L195 35M216.667 34.3334L217.333 34.6666L216.667 34.3334z"/>
<path style="fill:#4b3120; stroke:none;" d="M887 34L888 35L887 34z"/>
<path style="fill:#f5c025; stroke:none;" d="M1062.67 34.3334L1063.33 34.6666L1062.67 34.3334M1073 34L1073 35L1085 36L1073 34z"/>
<path style="fill:#718b78; stroke:none;" d="M211 35L211 36L214 36L211 35z"/>
<path style="fill:#b22c18; stroke:none;" d="M370 35L370 36L378 36L370 35M902 35L903 36L902 35M905 35L905 36L909 36L905 35z"/>
<path style="fill:#718b78; stroke:none;" d="M1066 35L1066 36L1069 36L1066 35z"/>
<path style="fill:#f5c025; stroke:none;" d="M189 36L189 37L194 37L189 36M203.667 36.3334L204.333 36.6666L203.667 36.3334M1075.67 36.3334L1076.33 36.6666L1075.67 36.3334M1086 36L1086 37L1097 38L1086 36M183 37L183 38L188 38L183 37z"/>
<path style="fill:#718b78; stroke:none;" d="M198.667 37.3334L199.333 37.6666L198.667 37.3334M1080 37L1080 38L1083 38L1080 37z"/>
<path style="fill:#f5c025; stroke:none;" d="M171 39L171 40L182 39L171 39M190.667 38.3334L191.333 38.6666L190.667 38.3334M1088.67 38.3334L1089.33 38.6666L1088.67 38.3334M1098 38L1098 39L1109 40L1098 38z"/>
<path style="fill:#718b78; stroke:none;" d="M184 39L184 40L188 40L184 39z"/>
<path style="fill:#b22c18; stroke:none;" d="M374 39L374 40L385 40L374 39M895 39L895 40L904 40L895 39z"/>
<path style="fill:#718b78; stroke:none;" d="M1093.67 39.3334L1094.33 39.6666L1093.67 39.3334z"/>
<path style="fill:#f5c025; stroke:none;" d="M159 41L159 42L170 41L159 41M177.667 40.3334L178.333 40.6666L177.667 40.3334z"/>
<path style="fill:#b22c18; stroke:none;" d="M368 40L368 41L372 41L368 40M909 40L909 41L912 41L909 40z"/>
<path style="fill:#f5c025; stroke:none;" d="M1101.67 40.3334L1102.33 40.6666L1101.67 40.3334M1110 40L1110 41L1121 42L1110 40z"/>
<path style="fill:#718b78; stroke:none;" d="M173.667 41.3334L174.333 41.6666L173.667 41.3334M1105.67 41.3334L1106.33 41.6666L1105.67 41.3334z"/>
<path style="fill:#f5c025; stroke:none;" d="M147 43L147 44L158 43L147 43M165.667 42.3334L166.333 42.6666L165.667 42.3334M1113.67 42.3334L1114.33 42.6666L1113.67 42.3334M1123 42L1123 43L1133 44L1123 42z"/>
<path style="fill:#718b78; stroke:none;" d="M161.667 43.3334L162.333 43.6666L161.667 43.3334M1117.67 43.3334L1118.33 43.6666L1117.67 43.3334z"/>
<path style="fill:#f5c025; stroke:none;" d="M103 51L103 52L146 45C134.824 40.6377 114.916 50.0516 103 51M153.667 44.3334L154.333 44.6666L153.667 44.3334M1125.67 44.3334L1126.33 44.6666L1125.67 44.3334M1134 44L1134 45L1156 48L1134 44z"/>
<path style="fill:#718b78; stroke:none;" d="M149.667 45.3334L150.333 45.6666L149.667 45.3334z"/>
<path style="fill:#b22c18; stroke:none;" d="M576 46L579.089 88L587 191L623 195L623 196L604 196L604 197L670 197L670 196L651 196L651 195L693 191L704 46L616 45L576 46z"/>
<path style="fill:#718b78; stroke:none;" d="M1129.67 45.3334L1130.33 45.6666L1129.67 45.3334z"/>
<path style="fill:#f5c025; stroke:none;" d="M142.667 46.3334L143.333 46.6666L142.667 46.3334M1136.67 46.3334L1137.33 46.6666L1136.67 46.3334z"/>
<path style="fill:#718b78; stroke:none;" d="M138.667 47.3334L139.333 47.6666L138.667 47.3334M1140.67 47.3334L1141.33 47.6666L1140.67 47.3334z"/>
<path style="fill:#f5c025; stroke:none;" d="M131 48L132 49L131 48z"/>
<path style="fill:#718b78; stroke:none;" d="M132 48L133 49L132 48M1147 48L1148 49L1147 48z"/>
<path style="fill:#f5c025; stroke:none;" d="M1148 48L1149 49L1148 48M1157 48L1157 49L1161 49L1157 48z"/>
<path style="fill:#718b78; stroke:none;" d="M127.667 49.3334L128.333 49.6666L127.667 49.3334M1152 49L1153 50L1152 49z"/>
<path style="fill:#f5c025; stroke:none;" d="M1162 49L1162 50L1177 52L1162 49M120 50L121 51L120 50z"/>
<path style="fill:#b22c18; stroke:none;" d="M817 133L818 133L818 130L823 130L823 126L832 126L832 125L824 122L831 107L845 117L835 104L835 103L849 94L854 110L855 110L853 93L868 92L867 109L868 109L872 94L891 98L891 94L895 94L895 112L900 112L900 107L908 107L908 103L911 103L911 118L912 118L916 55L847 51L824.742 51.0277L821.83 72L817 133z"/>
<path style="fill:#f5c025; stroke:none;" d="M1159 50L1160 51L1159 50z"/>
<path style="fill:#718b78; stroke:none;" d="M116.667 51.3334L117.333 51.6666L116.667 51.3334M1162.67 51.3334L1163.33 51.6666L1162.67 51.3334z"/>
<path style="fill:#f5c025; stroke:none;" d="M92 53L92 54L102 53L92 53M109 52L110 53L109 52z"/>
<path style="fill:#718b78; stroke:none;" d="M110 52L111 53L110 52M1169 52L1170 53L1169 52z"/>
<path style="fill:#f5c025; stroke:none;" d="M1170 52L1171 53L1170 52M1178 52L1178 53L1188 54L1178 52z"/>
<path style="fill:#718b78; stroke:none;" d="M104 53L105 54L104 53M106 53L107 54L106 53M1173 53L1174 54L1173 53z"/>
<path style="fill:#f5c025; stroke:none;" d="M82 55L82 56L91 55L82 55z"/>
<path style="fill:#729d99; stroke:none;" d="M98 54L99 55L98 54z"/>
<path style="fill:#f5c025; stroke:none;" d="M99 54L100 55L99 54M1180.67 54.3334L1181.33 54.6666L1180.67 54.3334M1189 54L1189 55L1198 56L1189 54z"/>
<path style="fill:#718b78; stroke:none;" d="M95 55L96 56L95 55M1184 55L1185 56L1184 55z"/>
<path style="fill:#f5c025; stroke:none;" d="M72 57L72 58L81 57L72 57M88.6667 56.3334L89.3333 56.6666L88.6667 56.3334M1190.67 56.3334L1191.33 56.6666L1190.67 56.3334M1199 56L1199 57L1208 58L1199 56z"/>
<path style="fill:#718b78; stroke:none;" d="M84.6667 57.3334L85.3333 57.6666L84.6667 57.3334z"/>
<path style="fill:#b22c18; stroke:none;" d="M258 65L258 71L259 71L259 66L283 64L283 67L292 67L292 71L300 71L300 76L309 76L309 81L319 81L319 85L328 85L328 89L337 89L337 94L347 94L347 98L353 98L354 116L355 116L350 57L258 65z"/>
<path style="fill:#718b78; stroke:none;" d="M1194.67 57.3334L1195.33 57.6666L1194.67 57.3334z"/>
<path style="fill:#f5c025; stroke:none;" d="M63 59L63 60L71 59L63 59M78 58L79 59L78 58M1201 58L1202 59L1201 58M1209 58L1209 59L1217 60L1209 58z"/>
<path style="fill:#718b78; stroke:none;" d="M73 59L74 60L73 59M75 59L76 60L75 59M1205 59L1206 60L1205 59z"/>
<path style="fill:#f5c025; stroke:none;" d="M53 61L53 62L62 61L53 61M68.6667 60.3334L69.3333 60.6666L68.6667 60.3334M1210.67 60.3334L1211.33 60.6666L1210.67 60.3334M1218 60L1218 61L1222 61L1222 62L1220 62L1220 63L1227 62L1218 60z"/>
<path style="fill:#718b78; stroke:none;" d="M65 61L66 62L65 61M1214 61L1215 62L1214 61z"/>
<path style="fill:#f5c025; stroke:none;" d="M35 65L35 66L52 63L35 65M59 62L60 63L59 62z"/>
<path style="fill:#4b3120; stroke:none;" d="M300 62L301 63L300 62z"/>
<path style="fill:#f5c025; stroke:none;" d="M1228 62L1228 63L1245 66L1228 62z"/>
<path style="fill:#718b78; stroke:none;" d="M54 63L55 64L54 63M56 63L57 64L56 63z"/>
<path style="fill:#4b3120; stroke:none;" d="M292.667 63.3334L293.333 63.6666L292.667 63.3334z"/>
<path style="fill:#718b78; stroke:none;" d="M1224 63L1225 64L1224 63z"/>
<path style="fill:#f5c025; stroke:none;" d="M49 64L50 65L49 64z"/>
<path style="fill:#718b78; stroke:none;" d="M50 64L51 65L50 64M1229 64L1230 65L1229 64z"/>
<path style="fill:#f5c025; stroke:none;" d="M1230 64L1231 65L1230 64z"/>
<path style="fill:#718b78; stroke:none;" d="M46 65L47 66L46 65M1233 65L1234 66L1233 65z"/>
<path style="fill:#f5c025; stroke:none;" d="M17 69L17 70L34 67L17 69M40 66L41 67L40 66M1239 66L1240 67L1239 66M1246 66L1246 67L1263 70L1246 66z"/>
<path style="fill:#718b78; stroke:none;" d="M37 67L38 68L37 67M1242 67L1243 68L1242 67z"/>
<path style="fill:#f5c025; stroke:none;" d="M31 68L32 69L31 68z"/>
<path style="fill:#718b78; stroke:none;" d="M32 68L33 69L32 68M1247 68L1248 69L1247 68z"/>
<path style="fill:#f5c025; stroke:none;" d="M1248 68L1249 69L1248 68z"/>
<path style="fill:#718b78; stroke:none;" d="M28 69L29 70L28 69M1251 69L1252 70L1251 69z"/>
<path style="fill:#f5c025; stroke:none;" d="M15 70L16 71L15 70M22 70L23 71L22 70M1257 70L1258 71L1257 70M1264 70L1265 71L1264 70z"/>
<path style="fill:#718b78; stroke:none;" d="M19 71L20 72L19 71M1260 71L1261 72L1260 71z"/>
<path style="fill:#f5c025; stroke:none;" d="M13 72L13 77L14 77L13 72M1266 72L1266 77L1267 77L1266 72z"/>
<path style="fill:#718b78; stroke:none;" d="M15 73L16 74L15 73M1264.33 73.6666L1264.67 74.3334L1264.33 73.6666z"/>
<path style="fill:#b22c18; stroke:none;" d="M259 74L259 81L260 81L259 74z"/>
<path style="fill:#718b78; stroke:none;" d="M15 75L16 76L15 75z"/>
<path style="fill:#f5c025; stroke:none;" d="M14 78L15 89L16 89L14 78M1265 78L1264 89L1265 89L1265 78z"/>
<path style="fill:#4b3120; stroke:none;" d="M631 80L634 107L633 107L625 82L609 92L623 114L604 97L595 116L617 125L617 126L593 122L593 144L616 140L616 141L595 149L604 169L622 153L608 174L625 184L633 159L634 159L630 186L650 186L646 159L647 159L655 184L672 174L658 153L676 169L685 149L664 141L664 140L687 144L687 122L663 126L663 125L685 116L676 97L657 114L671 92L655 82L647 107L646 107L649 80L631 80z"/>
<path style="fill:#f5c025; stroke:none;" d="M16 81L17 82L16 81M1263.33 81.6666L1263.67 82.3334L1263.33 81.6666z"/>
<path style="fill:#718b78; stroke:none;" d="M17.3333 85.6666L17.6667 86.3334L17.3333 85.6666z"/>
<path style="fill:#4b3120; stroke:none;" d="M908 85L908 87L913 87L913 85L908 85z"/>
<path style="fill:#718b78; stroke:none;" d="M1262.33 85.6666L1262.67 86.3334L1262.33 85.6666z"/>
<path style="fill:#b22c18; stroke:none;" d="M260 88L261 89L260 88z"/>
<path style="fill:#f5c025; stroke:none;" d="M16 91L17 101L18 101L16 91z"/>
<path style="fill:#b22c18; stroke:none;" d="M260 91L261 92L260 91z"/>
<path style="fill:#f5c025; stroke:none;" d="M1263 91L1262 101L1263 101L1263 91M18.3333 93.6666L18.6667 94.3334L18.3333 93.6666z"/>
<path style="fill:#b22c18; stroke:none;" d="M566 93L566 97L567 97L566 93z"/>
<path style="fill:#f5c025; stroke:none;" d="M1261.33 93.6666L1261.67 94.3334L1261.33 93.6666z"/>
<path style="fill:#b22c18; stroke:none;" d="M547 95L548 96L547 95M732 95L733 96L732 95z"/>
<path style="fill:#718b78; stroke:none;" d="M19.3333 97.6666L19.6667 98.3334L19.3333 97.6666M1260 97L1260 100L1261 100L1260 97z"/>
<path style="fill:#b22c18; stroke:none;" d="M305 98L305 99L318 99L305 98M531.333 98.6666L531.667 99.3334L531.333 98.6666M324 99L324 100L329 103L324 99M549 99L550 100L549 99M882 99L883 100L882 99M320 100L320 103L321 103L320 100M884 100L887 102L887 101L884 100M303 101L304 102L303 101M322.333 101.667L322.667 102.333L322.333 101.667M551 101L547 106L551 101M301 102L302 103L301 102M530 102L531 103L530 102M547 102L545 105L547 102M554 102L561 117L544 124L544 125L562 121L562 139L544 136L544 137L561 144L553 159L538 146L549 164L536 171L530 153L529 153L532 173L516 173L519 153L518 153L512 172L498 163L498 162L509 147L494 159L487 144L502 138L502 137L494 140C489.482 139.201 485.909 138.766 485 144L478 144L478 138L477 138L481 207L482 207L506 207L577 211L568 102L559 103L559 107L554 102z"/>
<path style="fill:#f5c025; stroke:none;" d="M18 103L19 113L20 113L18 103z"/>
<path style="fill:#b22c18; stroke:none;" d="M330 103L330 104L337 108L337 107L330 103M712 103L703 212L754.996 208.995L799 207L803 140L802 140L802 148L798 148L798 143L792 143L786 159L771 147L782 164L768 171L762 153L761 153L764 173L748 173L751 153L750 153L744 172L731 164L742 146L727 159L721.526 145.213L736 137L736 136L718 139L718 121L735 124L735 123L719 117L725 105L724 105L715 108L712 103M733 103L734 104L733 103z"/>
<path style="fill:#f5c025; stroke:none;" d="M1261 103L1260 114L1261 114L1261 103z"/>
<path style="fill:#b22c18; stroke:none;" d="M731 104L733 106L731 104M886 104L885 106L886 104z"/>
<path style="fill:#f5c025; stroke:none;" d="M20.3333 105.667L20.6667 106.333L20.3333 105.667z"/>
<path style="fill:#b22c18; stroke:none;" d="M321 105L322 106L321 105z"/>
<path style="fill:#729d99; stroke:none;" d="M1259 105L1260 106L1259 105z"/>
<path style="fill:#b22c18; stroke:none;" d="M319 106L319 112L320 112L319 106M544 106L539 113L544 106M887 108L890 107L887 108z"/>
<path style="fill:#f5c025; stroke:none;" d="M1259 106L1260 107L1259 106z"/>
<path style="fill:#b22c18; stroke:none;" d="M304 107L305 108L304 107M884 107L885 108L884 107M736 108L740 112L736 108M217 109L218 110L217 109M338 109L339 110L338 109z"/>
<path style="fill:#718b78; stroke:none;" d="M21.3333 110.667L21.6667 111.333L21.3333 110.667z"/>
<path style="fill:#b22c18; stroke:none;" d="M304.333 110.667L304.667 111.333L304.333 110.667z"/>
<path style="fill:#718b78; stroke:none;" d="M1258.33 110.667L1258.67 111.333L1258.33 110.667z"/>
<path style="fill:#b22c18; stroke:none;" d="M337 111L335 114L337 111M881 111L882 112L881 111M635 112.558C611.485 118.726 620.481 160.45 645 153.362C668.369 146.606 659.844 106.041 635 112.558M318.333 113.667L318.667 114.333L318.333 113.667M305 114L306 115L305 114M342 114L343 115L342 114M526.667 114.333L527.333 114.667L526.667 114.333M623 114L624 115L623 114M879 114L880 115L879 114z"/>
<path style="fill:#f5c025; stroke:none;" d="M20 115L21 126L22 126L20 115z"/>
<path style="fill:#b22c18; stroke:none;" d="M518 115L519 116L518 115M529 115L530 116L529 115M750 115L751 116L750 115M761 115L762 116L761 115z"/>
<path style="fill:#f5c025; stroke:none;" d="M1259 115L1258 126L1259 126L1259 115z"/>
<path style="fill:#b22c18; stroke:none;" d="M343 116L344 117L343 116M516 116L513 119L513 120L515 121L519 118L519 117L516 116M520 116L521 117L520 116M527 116L528 117L527 116M529 118C545.777 131.484 523.989 154.702 513.554 136.96C511.774 133.933 510.709 130.404 510 127C503.184 143.396 528.11 155.005 536.86 138.999C539.805 133.613 538.739 113.461 529 118z"/>
<path style="fill:#4b3120; stroke:none;" d="M637 116.562C618.379 121.22 623.501 153.965 643 149.463C661.74 145.137 656.384 111.713 637 116.562z"/>
<path style="fill:#b22c18; stroke:none;" d="M748 116L749 117L748 116z"/>
<path style="fill:#729d99; stroke:none;" d="M22 117L23 118L22 117z"/>
<path style="fill:#b22c18; stroke:none;" d="M514 117L515 118L514 117M750 117L751 118L750 117M762 117L763 118L762 117M764 117L765 118L764 117M896 117L897 118L896 117z"/>
<path style="fill:#729d99; stroke:none;" d="M1257 117L1258 118L1257 117z"/>
<path style="fill:#f5c025; stroke:none;" d="M22 118L23 119L22 118z"/>
<path style="fill:#b22c18; stroke:none;" d="M344 118L345 119L344 118M748 118L749 119L748 118z"/>
<path style="fill:#f5c025; stroke:none;" d="M1257 118L1258 119L1257 118z"/>
<path style="fill:#b22c18; stroke:none;" d="M332 119L328 124L332 119M745 119C741.358 125.413 739.296 133.292 743.728 139.985C750.191 149.745 764.828 149.066 769.387 137.996C770.835 134.478 770.969 130.744 771 127L770 127C768.731 132.482 766.911 138.747 761.907 141.991C748.082 150.952 742.115 130.718 747 121L745 119M857 119L857 120L860 120L857 119M862.667 119.333L863.333 119.667L862.667 119.333M897 119L898 120L897 119M910.333 119.667L910.667 120.333L910.333 119.667M855 120L856 121L855 120M511 121L511 128L512 128C511.461 124.768 510.102 123.275 513 124L511 121M766 121L767 122L766 121M768 121L769 122L768 121M868 121L869 122L868 121z"/>
<path style="fill:#718b78; stroke:none;" d="M23.3333 122.667L23.6667 123.333L23.3333 122.667z"/>
<path style="fill:#b22c18; stroke:none;" d="M355 122L356 123L355 122M495 122L496 123L495 122M497.667 122.333L498.333 122.667L497.667 122.333M781.667 122.333L782.333 122.667L781.667 122.333M784 122L785 123L784 122M852 122L853 123L852 122z"/>
<path style="fill:#718b78; stroke:none;" d="M1256.33 122.667L1256.67 123.333L1256.33 122.667z"/>
<path style="fill:#b22c18; stroke:none;" d="M500.667 123.333L501.333 123.667L500.667 123.333M767 123L768 124L767 123M769.333 123.667L769.667 124.333L769.333 123.667M868 123L869 124L868 123M895 123L896 124L895 123M852 124L851 126L852 124M476 125L476 129L477 129L476 125M849 125L850 126L849 125M910 125L910 129L911 129L910 125M768.333 126.667L768.667 127.333L768.333 126.667M833 126L839 129L839 128L833 126M895 126L896 127L895 126z"/>
<path style="fill:#f5c025; stroke:none;" d="M22 127L23 138L24 138L22 127z"/>
<path style="fill:#b22c18; stroke:none;" d="M831 127L832 128L831 127z"/>
<path style="fill:#f5c025; stroke:none;" d="M1257 127L1256 138L1257 138L1257 127z"/>
<path style="fill:#729d99; stroke:none;" d="M24 129L25 130L24 129z"/>
<path style="fill:#b22c18; stroke:none;" d="M347 129L348 130L347 129M847 129L848 130L847 129z"/>
<path style="fill:#729d99; stroke:none;" d="M1255 129L1256 130L1255 129z"/>
<path style="fill:#f5c025; stroke:none;" d="M24 130L25 131L24 130z"/>
<path style="fill:#b22c18; stroke:none;" d="M803 130L804 131L803 130z"/>
<path style="fill:#f5c025; stroke:none;" d="M1255.33 130.667L1255.67 131.333L1255.33 130.667z"/>
<path style="fill:#729d99; stroke:none;" d="M24 131L25 132L24 131z"/>
<path style="fill:#b22c18; stroke:none;" d="M485 131L485 139L486 139L485 131M848 131L849 132L848 131M348 132L349 133L348 132M338 133L339 134L338 133z"/>
<path style="fill:#718b78; stroke:none;" d="M25 134L25 137L26 137L25 134z"/>
<path style="fill:#b22c18; stroke:none;" d="M336 134L337 135L336 134M476.333 134.667L476.667 135.333L476.333 134.667M816 134L817 135L816 134z"/>
<path style="fill:#718b78; stroke:none;" d="M1254 134L1254 137L1255 137L1254 134z"/>
<path style="fill:#b22c18; stroke:none;" d="M356 135L357 136L356 135M803 136L804 137L803 136M816 136L816 146L817 146L816 136M778 137L778 138L791 143C790.058 140.712 789.438 140.342 792 140L792 139L778 137z"/>
<path style="fill:#f5c025; stroke:none;" d="M24 139L25 150L26 150L24 139M1255 140L1254 150L1255 150L1255 140M26.3333 142.667L26.6667 143.333L26.3333 142.667M1253.33 142.667L1253.67 143.333L1253.33 142.667z"/>
<path style="fill:#718b78; stroke:none;" d="M27.3333 146.667L27.6667 147.333L27.3333 146.667M1252.33 146.667L1252.67 147.333L1252.33 146.667z"/>
<path style="fill:#b22c18; stroke:none;" d="M825 147L826 148L825 147M815 149L815 152L816 152L815 149M623 151L622 153L623 151z"/>
<path style="fill:#f5c025; stroke:none;" d="M26 152L27 162L28 162L26 152z"/>
<path style="fill:#b22c18; stroke:none;" d="M657 152L658 153L657 152z"/>
<path style="fill:#f5c025; stroke:none;" d="M1253 152L1252 163L1253 163L1253 152M28.3333 154.667L28.6667 155.333L28.3333 154.667M1251.33 154.667L1251.67 155.333L1251.33 154.667z"/>
<path style="fill:#b22c18; stroke:none;" d="M1038 156L1039 157L1038 156z"/>
<path style="fill:#718b78; stroke:none;" d="M29.3333 158.667L29.6667 159.333L29.3333 158.667M1250 158L1250 161L1251 161L1250 158z"/>
<path style="fill:#b22c18; stroke:none;" d="M1045 160L1046 161L1045 160z"/>
<path style="fill:#718b78; stroke:none;" d="M29 161L30 162L29 161z"/>
<path style="fill:#b22c18; stroke:none;" d="M240 163L241 164L240 163M1040 163L1039 165L1040 163z"/>
<path style="fill:#f5c025; stroke:none;" d="M28 164L29 175L30 175L28 164z"/>
<path style="fill:#b22c18; stroke:none;" d="M1060 164L1061 165L1060 164z"/>
<path style="fill:#f5c025; stroke:none;" d="M1251 164L1250 175L1251 175L1251 164M30 167L31 168L30 167z"/>
<path style="fill:#b22c18; stroke:none;" d="M1027 167L1028 168L1027 167M1072.67 167.333L1073.33 167.667L1072.67 167.333z"/>
<path style="fill:#f5c025; stroke:none;" d="M1249 167L1250 168L1249 167z"/>
<path style="fill:#b22c18; stroke:none;" d="M1054 170L1055 171L1054 170z"/>
<path style="fill:#718b78; stroke:none;" d="M31.3333 171.667L31.6667 172.333L31.3333 171.667z"/>
<path style="fill:#b22c18; stroke:none;" d="M1043 171L1044 172L1043 171M1068 171L1069 172L1068 171z"/>
<path style="fill:#718b78; stroke:none;" d="M1248.33 171.667L1248.67 172.333L1248.33 171.667z"/>
<path style="fill:#b22c18; stroke:none;" d="M1082.33 172.667L1082.67 173.333L1082.33 172.667M1044 173L1045 174L1044 173M1050 173L1045 175L1046 178L1050 173M1056 173L1055 175L1056 173M1068 173L1067 175L1068 173M1079 175L1080 176L1079 175M1082 175L1084 177L1082 175z"/>
<path style="fill:#f5c025; stroke:none;" d="M30 176L31 187L32 187L30 176z"/>
<path style="fill:#b22c18; stroke:none;" d="M1054 176L1053 178L1054 176z"/>
<path style="fill:#f5c025; stroke:none;" d="M1249 176L1248 187L1249 187L1249 176z"/>
<path style="fill:#b22c18; stroke:none;" d="M1066 177L1067 178L1066 177M1070 178L1071 179L1070 178z"/>
<path style="fill:#f5c025; stroke:none;" d="M32.3333 179.667L32.6667 180.333L32.3333 179.667M1247.33 179.667L1247.67 180.333L1247.33 179.667z"/>
<path style="fill:#b22c18; stroke:none;" d="M1026.33 180.667L1026.67 181.333L1026.33 180.667M1051 180L1051 183L1052 183L1051 180M1065.33 180.667L1065.67 181.333L1065.33 180.667M1080.33 180.667L1080.67 181.333L1080.33 180.667M1069 181L1069 185L1070 185L1069 181M1099 181L1100 182L1099 181M1085 182L1086 183L1085 182z"/>
<path style="fill:#718b78; stroke:none;" d="M33.3333 183.667L33.6667 184.333L33.3333 183.667z"/>
<path style="fill:#b22c18; stroke:none;" d="M1026 183L1027 184L1026 183M1064 183L1065 184L1064 183M1081 183L1082 184L1081 183z"/>
<path style="fill:#718b78; stroke:none;" d="M1246.33 183.667L1246.67 184.333L1246.33 183.667z"/>
<path style="fill:#b22c18; stroke:none;" d="M1054 184L1056 186L1054 184M1081 185L1081 188L1082 188L1081 185M1093 185L1092 187L1093 185M1058 187L1059 188L1058 187M1063 187L1064 188L1063 187M1068 187L1068 190L1069 190L1068 187M1086 187L1087 190L1088 190L1086 187M1025 188L1025 194L1026 194L1025 188M1089 188L1090 189L1089 188z"/>
<path style="fill:#f5c025; stroke:none;" d="M32 189L33 199L34 199L32 189z"/>
<path style="fill:#b22c18; stroke:none;" d="M217 189L218 190L217 189M1062 189L1063 190L1062 189z"/>
<path style="fill:#f5c025; stroke:none;" d="M1247 189L1246 199L1247 199L1247 189z"/>
<path style="fill:#718b78; stroke:none;" d="M1245 190L1246 191L1245 190z"/>
<path style="fill:#f5c025; stroke:none;" d="M34.3333 191.667L34.6667 192.333L34.3333 191.667z"/>
<path style="fill:#b22c18; stroke:none;" d="M1068 191L1068 192L1083 192L1068 191z"/>
<path style="fill:#f5c025; stroke:none;" d="M1245.33 191.667L1245.67 192.333L1245.33 191.667z"/>
<path style="fill:#718b78; stroke:none;" d="M35.3333 196.667L35.6667 197.333L35.3333 196.667M1244.33 196.667L1244.67 197.333L1244.33 196.667z"/>
<path style="fill:#b22c18; stroke:none;" d="M1024 197L1024 200L1025 200L1024 197z"/>
<path style="fill:#f5c025; stroke:none;" d="M34 201L35 212L36 212L34 201M1245 201L1244 212L1245 212L1245 201z"/>
<path style="fill:#b22c18; stroke:none;" d="M1024 202L1025 203L1024 202z"/>
<path style="fill:#729d99; stroke:none;" d="M36 203L37 204L36 203M1243 203L1244 204L1243 203z"/>
<path style="fill:#f5c025; stroke:none;" d="M36 204L37 205L36 204z"/>
<path style="fill:#b22c18; stroke:none;" d="M1024 204L1025 205L1024 204z"/>
<path style="fill:#f5c025; stroke:none;" d="M1243 204L1244 205L1243 204z"/>
<path style="fill:#718b78; stroke:none;" d="M37.3333 208.667L37.6667 209.333L37.3333 208.667M1242.33 208.667L1242.67 209.333L1242.33 208.667z"/>
<path style="fill:#f5c025; stroke:none;" d="M36 213L37 220L16 220L16 221L38 221L36 213M1243 213L1242 221L1264 221L1264 220L1243 220L1243 213z"/>
<path style="fill:#729d99; stroke:none;" d="M38 215L39 216L38 215M1241 215L1242 216L1241 215z"/>
<path style="fill:#f5c025; stroke:none;" d="M38.3333 216.667L38.6667 217.333L38.3333 216.667M1241 216L1242 217L1241 216z"/>
<path style="fill:#718b78; stroke:none;" d="M39.3333 220.667L39.6667 221.333L39.3333 220.667M1240.33 220.667L1240.67 221.333L1240.33 220.667z"/>
<path style="fill:#f5c025; stroke:none;" d="M14 222L14 277L15 277L15 240L14 222z"/>
<path style="fill:#729d99; stroke:none;" d="M16 222L16 223L38 223L16 222z"/>
<path style="fill:#f5c025; stroke:none;" d="M38 222L39 223L38 222M1241 222L1242 223L1241 222z"/>
<path style="fill:#729d99; stroke:none;" d="M1242 222L1242 223L1264 223L1242 222z"/>
<path style="fill:#f5c025; stroke:none;" d="M1265 222L1265 277L1266 277L1266 240L1265 222z"/>
<path style="fill:#b22c18; stroke:none;" d="M378 223L378 224L436 224L436 225L429 225L429 274L421 274L421 275L473 275L473 276L232 276L232 277L244 277C246.698 295 261.573 312.612 274 324.999C305.6 356.497 349.047 377.631 391 391.667C543.993 442.85 718.888 443.146 873 396.72C920.055 382.545 969.599 360.99 1005 325.996C1017.79 313.353 1033.23 295.488 1036 277L1048 277L1048 276L808 276L808 275L859 275L859 274L851 274L851 224L880 224C868.544 219.193 848.468 223 836 223L734 223L378 223z"/>
<path style="fill:#4b3120; stroke:none;" d="M443 224L444 225L443 224z"/>
<path style="fill:#b22c18; stroke:none;" d="M415 274L416 275L415 274M865 274L866 275L865 274z"/>
<path style="fill:#718b78; stroke:none;" d="M601 275L601 276L615 276L601 275M666 275L666 276L680 276L666 275z"/>
<path style="fill:#b22c18; stroke:none;" d="M230 276C215.575 280.264 196.049 277 181 277L77 277L77 307L77 372L77 577L78 577L78 513C110.875 517.245 144.452 524.951 177 531.449C193.797 534.803 212.845 540.204 230 539.982C247.171 539.758 267.248 529.906 283 523.6C324.378 507.035 363.337 482.358 396 452.089C407.206 441.704 420.277 430.362 428 417C364.018 398.844 290.394 374.659 248.896 319C238.727 305.361 236.99 290.54 230 276z"/>
<path style="fill:#718b78; stroke:none;" d="M231 276L232 277L231 276M1048 276L1049 277L1048 276z"/>
<path style="fill:#b22c18; stroke:none;" d="M1049 276C1046.75 304.27 1025.8 328.72 1005 346.08C961.102 382.724 906.223 401.613 852 417C859.723 430.362 872.794 441.704 884 452.089C916.663 482.358 955.62 507.034 997 523.6C1012.75 529.906 1032.83 539.758 1050 539.982C1067.16 540.204 1086.2 534.803 1103 531.449C1135.55 524.951 1169.13 517.245 1202 513L1202 577L1203 577L1203 372L1203 307L1203 277L1100 277L1049 276z"/>
<path style="fill:#f5c025; stroke:none;" d="M231 277L231 278L244 278L231 277M1036 277L1036 278L1049 278L1036 277M16 278L16 279L75 279L75 991L54 991L54 992L76 992L76 278L16 278z"/>
<path style="fill:#718b78; stroke:none;" d="M231 278L233 289C235.854 289 234.67 290.686 234 293L236 292L235 295C239.425 293.125 243.939 291.923 248 295L249 295L249 290C246.564 290 247.385 289.214 248 287L246 288L247 285L244 283C244.272 276.069 236.036 278 231 278M1036 278L1035 280L1036 283L1033 285L1034 288L1032 287C1032.98 289.95 1033.49 290.622 1031 290L1031 294L1045 295L1044 292L1046 293C1044.99 289.984 1044.18 288.295 1047 289L1046 286L1048 286L1049 278L1036 278z"/>
<path style="fill:#f5c025; stroke:none;" d="M1204 278L1204 992L1226 992L1226 991L1205 991L1205 279L1264 279L1245 278L1204 278M1036 279L1037 280L1036 279M244.333 281.667L244.667 282.333L244.333 281.667M1035.33 281.667L1035.67 282.333L1035.33 281.667M232 282L233 283L232 282M1047.33 282.667L1047.67 283.333L1047.33 282.667M245 284L246 285L245 284M1034 284L1035 285L1034 284M233.333 286.667L233.667 287.333L233.333 286.667M246.333 286.667L246.667 287.333L246.333 286.667M1033.33 286.667L1033.67 287.333L1033.33 286.667M1046.33 286.667L1046.67 287.333L1046.33 286.667M234 288L234 292L235 292L234 288M247 288L247 291L248 291L247 288M1032 288L1032 291L1033 291L1032 288M1045 288L1045 292L1046 292L1045 288M248 291L249 295L248 295C243.901 290.309 234.851 292.773 237.472 300.001C244.861 320.372 262.569 336.989 279 350.196C320.218 383.328 376.351 406.311 428 417C391.633 461.694 344.372 495.696 292 519.306C274.189 527.335 249.812 539.532 230 539.946C212.978 540.302 193.665 534.776 177 531.449C144.422 524.945 110.919 517.251 78 513L78 578C91.6194 581.227 104.947 588.133 118 593.189C138.763 601.231 159.832 608.431 181 615.33C189.952 618.248 198.981 621.014 208 623.72C211.408 624.743 216.767 625.457 219.062 628.43C223.925 634.732 223.954 649.259 225.247 657C229.24 680.915 232.586 704.9 235.166 729C245.257 823.256 247 918.197 247 1013L260 1013C260 925.943 259.551 838.61 251.17 752C247.403 713.074 245.849 669.471 234 632C238.701 628.437 239.571 618.536 241.14 613C245.682 596.976 250.388 581.003 255 565C256.621 559.374 261.37 550.262 258 545C307.919 533.451 356.359 503.03 395 470.41C406.424 460.766 417.645 449.456 427.246 438C431.027 433.489 436.416 423.471 442.09 421.492C450.189 418.666 468.484 426.171 477 427.803C503.985 432.976 531.602 436.99 559 438.911C620.034 443.188 681.096 443.355 742 436.834C763.421 434.541 784.861 431.401 806 427.2C814.596 425.491 828.393 419.797 836.961 421.269C842.699 422.256 848.381 432.767 851.92 437C862.371 449.502 874.498 461.629 887 472.08C925.147 503.97 972.939 533.65 1022 545C1018.53 550.412 1023.63 560.203 1025.29 566C1029.79 581.673 1034.41 597.31 1038.86 613C1040.43 618.536 1041.3 628.437 1046 632C1034.15 669.486 1032.6 713.063 1028.83 752C1020.45 838.616 1020 925.935 1020 1013L1033 1013C1033 918.197 1034.74 823.256 1044.83 729C1047.41 704.9 1050.76 680.915 1054.75 657C1056.05 649.259 1056.07 634.732 1060.94 628.43C1063.23 625.457 1068.59 624.742 1072 623.72C1081.02 621.014 1090.05 618.248 1099 615.33C1120.17 608.431 1141.24 601.231 1162 593.189C1175.05 588.133 1188.38 581.227 1202 578L1202 513C1169.08 517.251 1135.58 524.945 1103 531.449C1086.34 534.776 1067.02 540.302 1050 539.946C1030.19 539.532 1005.81 527.335 988 519.306C935.623 495.693 888.369 461.696 852 417C903.61 406.319 959.814 383.301 1001 350.196C1015.01 338.938 1027.54 326.403 1036.94 311C1042.67 301.6 1047.2 289.211 1031 294L1032 291L1031 291C986.218 366.919 886.774 398.029 805 413.803C695.973 434.834 584.028 434.834 475 413.803C416.519 402.522 355.766 383.909 306 350.255C291.297 340.312 276.917 328.602 265.439 315C259.161 307.56 254.824 297.731 248 291M235.333 292.667L235.667 293.333L235.333 292.667M1044.33 292.667L1044.67 293.333L1044.33 292.667z"/>
<path style="fill:#718b78; stroke:none;" d="M237 295L238 296L237 295M251 295L252 296L251 295M1028 295L1029 296L1028 295M1042 295L1043 296L1042 295M236 297L237 298L236 297M252 297L253 298L252 297M1027 297L1028 298L1027 297M1043 297L1044 298L1043 297M254 300L255 301L254 300M1025 300L1026 301L1025 300M256 303L257 304L256 303M1023 303L1024 304L1023 303M261 310L262 311L261 310M1018 310L1019 311L1018 310M245 314L246 315L245 314M1034 314L1035 315L1034 314M265 315L266 316L265 315M1014 315L1015 316L1014 315M439 423L443 421L439 423M837 420L837 421L841 423L837 420z"/>
<path style="fill:#4b3120; stroke:none;" d="M260 545L254.025 569L241.709 612L235.431 634L239.586 659L248 722L273 703.721L281.593 695.816L275 658C283.205 657.346 281.691 648.455 286.623 643.584C296.533 633.795 303.145 621.486 312.789 611.317C316.786 607.102 321.896 604.807 326 600L335 664L360 652L360 651L340 660L365.427 617L385 591L386 591L386 599L387 599L385 547C397.42 545.869 407.776 534.834 418 528.562C425.208 524.142 432.83 523.511 440 518L443 541C465.382 527.2 488.976 517.483 511.853 505.034C517.546 501.936 514.168 493.839 519.279 490.228C536.954 477.739 566.515 478 587 478L587 485L625 482L626 474C640.571 474 658.887 471.091 672.945 475.43C677.281 476.768 676.699 481.678 680.303 483.397C689.853 487.95 709.306 489.067 720 490L720 478C733.912 482.411 748.77 487.123 763 490.32C768.67 491.594 774.389 490.664 780 492.523C793.659 497.05 806.363 507.958 821 508L825 535C832.414 535.511 840.222 543.388 846.075 547.667C861.6 559.018 876.699 571.802 889.517 586.184C895.006 592.343 900.898 597.33 901 606L902 606L902 552L903 552L903 558C912.141 558.297 915.771 566.596 922 572.196C929.972 579.364 941.153 584.632 949 592L945 592L945 593C952.365 593.567 955.715 601.099 959 607L960 607L960 593L961 593L960 650L960.313 671.815L972 680.424L1005 701L1003 658C1008.28 662.657 1014.96 676.602 1018.35 683.143C1020.57 687.407 1019.85 692.306 1025 694L1029 715L1030 715L1030 712L1031 712L1030 719L1026 716L1032 721L1040.25 659L1044.57 634L1038.42 613L1025.58 568L1020 545C973.7 529.934 929.523 507.12 892 475.919C878.365 464.581 865.812 452.255 854.05 439C849.823 434.237 844.224 423.629 837.961 421.694C829.582 419.104 812.646 426.135 804 427.803C778.208 432.779 752.135 436.333 726 438.83C662.375 444.91 597.485 444.537 534 436.715C512.229 434.033 490.522 430.849 469 426.551C461.982 425.149 448.905 419.572 442.039 421.694C435.776 423.629 430.177 434.237 425.95 439C414.188 452.255 401.635 464.581 388 475.919C350.454 507.14 306.323 529.927 260 545z"/>
<path style="fill:#718b78; stroke:none;" d="M445.667 421.333L446.333 421.667L445.667 421.333M833.667 421.333L834.333 421.667L833.667 421.333M449.667 422.333L450.333 422.667L449.667 422.333M829.667 422.333L830.333 422.667L829.667 422.333M454.667 423.333L455.333 423.667L454.667 423.333M824.667 423.333L825.333 423.667L824.667 423.333M458 424L458 425L461 425L458 424M819.667 424.333L820.333 424.667L819.667 424.333M437 425L438 426L437 425M464 425L465 426L464 425M815 425L816 426L815 425M842 425L843 426L842 425M436 426L437 427L436 426M468.667 426.333L469.333 426.667L468.667 426.333M809 426L809 427L812 427L809 426M843 426L844 427L843 426M474.667 427.333L475.333 427.667L474.667 427.333M804.667 427.333L805.333 427.667L804.667 427.333M479.667 428.333L480.333 428.667L479.667 428.333M799.667 428.333L800.333 428.667L799.667 428.333M484 429L484 430L487 430L484 429M793 429L793 430L796 430L793 429M433 430L434 431L433 430M490 430L490 431L493 431L490 430M787 430L787 431L790 431L787 430M846 430L847 431L846 430M432 431L433 432L432 431M496 431L496 432L499 432L496 431M781 431L781 432L784 432L781 431M847 431L848 432L847 431M431 432L432 433L431 432M502 432L502 433L505 433L502 432M775 432L775 433L778 433L775 432M848 432L849 433L848 432M510.667 433.333L511.333 433.667L510.667 433.333M768.667 433.333L769.333 433.667L768.667 433.333M516 434L516 435L520 435L516 434M760 434L760 435L764 435L760 434M524 435L524 436L527 436L524 435M753 435L753 436L756 436L753 435M428 436L429 437L428 436M532 436L532 437L536 437L532 436M744 436L744 437L748 437L744 436M851 436L852 437L851 436M427 437L428 438L427 437M541 437L541 438L545 438L541 437M735 437L735 438L739 438L735 437M852 437L853 438L852 437M426 438L427 439L426 438M551 438L551 439L556 439L551 438M724 438L724 439L729 439L724 438M853 438L854 439L853 438M563 439L563 440L568 440L563 439M712 439L712 440L717 440L712 439M575 440L575 441L582 441L575 440M698 440L698 441L705 441L698 440M593 441L593 442L601 442L593 441M679 441L679 442L687 442L679 441M617 442L617 443L663 443C651.061 437.99 630.003 442 617 442M421 444L422 445L421 444M858 444L859 445L858 444M420 445L421 446L420 445M859 445L860 446L859 445M419 446L420 447L419 446M860 446L861 447L860 446M418 447L419 448L418 447M861 447L862 448L861 447M417 448L418 449L417 448M862 448L863 449L862 448M416 449L417 450L416 449M863 449L864 450L863 449M415 450L416 451L415 450M864 450L865 451L864 450M414 451L415 452L414 451M865 451L866 452L865 451M413 452L414 453L413 452M866 452L867 453L866 452M412 453L413 454L412 453M867 453L868 454L867 453M411 454L412 455L411 454M868 454L869 455L868 454M410 455L411 456L410 455M869 455L870 456L869 455M409 456L410 457L409 456M870 456L871 457L870 456M408 457L409 458L408 457M871 457L872 458L871 457M407 458L408 459L407 458M872 458L873 459L872 458M406 459L407 460L406 459M873 459L874 460L873 459M405 460L406 461L405 460M874 460L875 461L874 460M404 461L405 462L404 461M875 461L876 462L875 461M403 462L404 463L403 462M876 462L877 463L876 462M402 463L403 464L402 463M877 463L878 464L877 463M401 464L402 465L401 464M878 464L879 465L878 464M394 470L395 471L394 470M885 470L886 471L885 470M393 471L394 472L393 471M886 471L887 472L886 471M392 472L393 473L392 472M887 472L888 473L887 472M626 474L625 482L587 485L587 478C565.636 478 538.272 477.97 519.279 489.72C513.635 493.211 517.421 501.759 510.941 505.034C488.214 516.52 462.784 524.181 443 541L440 518C432.599 522.121 423.905 524.322 417 528.562C406.636 534.927 397.287 544.604 385 547L387 599L386 599L386 591L385 591C368.709 612.605 349.405 634.116 340 660L360 651L360 652L335 664L326 600C310.449 612.841 299.539 629.064 285.965 643.584C281.418 648.449 282.712 656.742 275 658C275.385 666.936 277.796 676.254 279.661 685C280.371 688.328 282.571 693.403 280.883 696.674C275.454 707.197 250.204 711.224 248.684 723.95C247.069 737.466 251.502 754.066 252.981 767.576C255.177 787.614 255.558 807.913 257.201 828C261.643 882.314 260 938.304 260 993L1020 993C1020 902.336 1020.63 810.995 1032 721L1026 716L1030 719L1031 712L1030 712L1030 715L1029 715L1025 694L1018.75 683.143L1013.61 676.946L1003 658L1005 701L973 680.424L960.452 671.331L960 649L961 593L960 593L960 607L959 607C956.492 600.383 952.63 593.253 945 593L945 592L949 592C947.013 589.184 944.151 589.453 941.518 587.44C937.649 584.481 935.642 579.51 931.711 576.6C928.94 574.549 925.41 574.562 922.745 572.196C915.993 566.2 912.921 558.117 903 558L903 552L902 552L902 606L901 606C900.966 596.473 895.039 591.151 888.76 584.518C875.716 570.737 861.432 558.146 846.075 547.003C840.172 542.721 832.511 534.99 825 535L821 508C807.382 507.878 794.63 497.446 782 492.876C775.741 490.611 769.325 491.712 763 490.076C748.573 486.345 734.566 481.33 720 478L720 490C708.7 488.339 691.469 487.854 681.144 483.397C677.399 481.78 677.898 476.753 673.867 475.43C659.795 470.81 640.66 474 626 474M388 475L389 476L388 475M891 475L892 476L891 475M387 476L388 477L387 476M892 476L893 477L892 476M386 477L387 478L386 477M893 477L894 478L893 477M382 480L383 481L382 480M897 480L898 481L897 480M381 481L382 482L381 481M898 481L899 482L898 481M378 483L379 484L378 483M901 483L902 484L901 483M377 484L378 485L377 484M902 484L903 485L902 484M374 486L375 487L374 486M905 486L906 487L905 486M373 487L374 488L373 487M906 487L907 488L906 487M370 489L371 490L370 489M909 489L910 490L909 489M369 490L370 491L369 490M910 490L911 491L910 490M366 492L367 493L366 492M913 492L914 493L913 492z"/>
<path style="fill:#4b3120; stroke:none;" d="M720 493L721 494L720 493z"/>
<path style="fill:#718b78; stroke:none;" d="M363 494L364 495L363 494M916 494L917 495L916 494M360 496L361 497L360 496M919 496L920 497L919 496M359 497L360 498L359 497M920 497L921 498L920 497M357 498L358 499L357 498M356 499L357 500L356 499M923 499L924 500L923 499M354 500L355 501L354 500M925 500L926 501L925 500M351 502L352 503L351 502M928 502L929 503L928 502M348 504L349 505L348 504M931 504L932 505L931 504M346 505L347 506L346 505M933 505L934 506L933 505M343 507L344 508L343 507z"/>
<path style="fill:#4b3120; stroke:none;" d="M514 507L515 508L514 507z"/>
<path style="fill:#718b78; stroke:none;" d="M936 507L937 508L936 507M341 508L342 509L341 508M938 508L939 509L938 508M338 510L339 511L338 510M941 510L942 511L941 510M336 511L337 512L336 511M943 511L944 512L943 511M334 512L335 513L334 512M945 512L946 513L945 512M81 513L82 514L81 513M1198 513L1199 514L1198 513M86 514L87 515L86 514M331 514L332 515L331 514M948 514L949 515L948 514M1193 514L1194 515L1193 514M91 515L92 516L91 515M329 515L330 516L329 515M950 515L951 516L950 515M1188 515L1189 516L1188 515M96 516L97 517L96 516M327 516L328 517L327 516M952 516L953 517L952 516M1183 516L1184 517L1183 516M325 517L326 518L325 517M954 517L955 518L954 517M323 518L324 519L323 518M956 518L957 519L956 518M321 519L322 520L321 519M958 519L959 520L958 519M319 520L320 521L319 520M960 520L961 521L960 520M317 521L318 522L317 521M962 521L963 522L962 521M126 522L127 523L126 522M315 522L316 523L315 522M964 522L965 523L964 522M1153 522L1154 523L1153 522M132 523L133 524L132 523M313 523L314 524L313 523M966 523L967 524L966 523M1147 523L1148 524L1147 523M311 524L312 525L311 524M968 524L969 525L968 524M143 525L144 526L143 525M309 525L310 526L309 525M970 525L971 526L970 525M1136 525L1137 526L1136 525M148 526L149 527L148 526M307 526L308 527L307 526M972 526L973 527L972 526M1131 526L1132 527L1131 526M154 527L155 528L154 527M305 527L306 528L305 527M1125 527L1126 528L1125 527M159 528L160 529L159 528M302 528L303 529L302 528M977 528L978 529L977 528M1120 528L1121 529L1120 528M165 529L166 530L165 529M300 529L301 530L300 529M979 529L980 530L979 529M1114 529L1115 530L1114 529M171 530L172 531L171 530M298 530L299 531L298 530M981 530L982 531L981 530M1108 530L1109 531L1108 530M177 531L178 532L177 531M296 531L297 532L296 531M1102 531L1103 532L1102 531M181 532L182 533L181 532M293 532L294 533L293 532M986 532L987 533L986 532M1098 532L1099 533L1098 532M187 533L188 534L187 533M291 533L292 534L291 533M988 533L989 534L988 533M1092 533L1093 534L1092 533M193 534L194 535L193 534M288 534L289 535L288 534M991 534L992 535L991 534M1086 534L1087 535L1086 534M199 535L200 536L199 535M286 535L287 536L286 535M993 535L994 536L993 535M1080 535L1081 536L1080 535M283 536L284 537L283 536z"/>
<path style="fill:#4b3120; stroke:none;" d="M825 536L826 537L825 536z"/>
<path style="fill:#718b78; stroke:none;" d="M996 536L997 537L996 536M280.667 537.333L281.333 537.667L280.667 537.333M998.667 537.333L999.333 537.667L998.667 537.333M218 538L219 539L218 538M278 538L279 539L278 538M1001 538L1002 539L1001 538M1061 538L1062 539L1061 538M275 539L276 540L275 539M1004 539L1005 540L1004 539M272 540L273 541L272 540M1007 540L1008 541L1007 540M269.667 541.333L270.333 541.667L269.667 541.333M1009.67 541.333L1010.33 541.667L1009.67 541.333M266.667 542.333L267.333 542.667L266.667 542.333M1012.67 542.333L1013.33 542.667L1012.67 542.333M263.667 543.333L264.333 543.667L263.667 543.333M1015.67 543.333L1016.33 543.667L1015.67 543.333M260.667 544.333L261.333 544.667L260.667 544.333M385 544L386 545L385 544z"/>
<path style="fill:#4b3120; stroke:none;" d="M443.333 544.667L443.667 545.333L443.333 544.667z"/>
<path style="fill:#718b78; stroke:none;" d="M1018.67 544.333L1019.33 544.667L1018.67 544.333z"/>
<path style="fill:#729d99; stroke:none;" d="M258 545L259 546L258 545z"/>
<path style="fill:#718b78; stroke:none;" d="M259 545L260 546L259 545M1020 545L1021 546L1020 545z"/>
<path style="fill:#729d99; stroke:none;" d="M1021 545L1022 546L1021 545z"/>
<path style="fill:#718b78; stroke:none;" d="M260 546L261 547L260 546M1019 546L1020 547L1019 546M259.333 549.667L259.667 550.333L259.333 549.667M1020.33 549.667L1020.67 550.333L1020.33 549.667z"/>
<path style="fill:#729d99; stroke:none;" d="M258 552L259 553L258 552M1021 552L1022 553L1021 552z"/>
<path style="fill:#718b78; stroke:none;" d="M258 553L259 554L258 553M1021 553L1022 554L1021 553M257.333 556.667L257.667 557.333L257.333 556.667M1022.33 556.667L1022.67 557.333L1022.33 556.667z"/>
<path style="fill:#729d99; stroke:none;" d="M256 559L257 560L256 559M1023 559L1024 560L1023 559z"/>
<path style="fill:#718b78; stroke:none;" d="M256 560L257 561L256 560M1023 560L1024 561L1023 560M255.333 563.667L255.667 564.333L255.333 563.667M1024.33 563.667L1024.67 564.333L1024.33 563.667z"/>
<path style="fill:#729d99; stroke:none;" d="M254 566L255 567L254 566M1025 566L1026 567L1025 566z"/>
<path style="fill:#718b78; stroke:none;" d="M254 567L255 568L254 567M1025 567L1026 568L1025 567M253 570L254 571L253 570M1026.33 570.667L1026.67 571.333L1026.33 570.667z"/>
<path style="fill:#729d99; stroke:none;" d="M252 573L253 574L252 573M1027 573L1028 574L1027 573z"/>
<path style="fill:#718b78; stroke:none;" d="M252 574L253 575L252 574M1027 574L1028 575L1027 574M251 577L252 578L251 577M1028.33 577.667L1028.67 578.333L1028.33 577.667M80 578L81 579L80 578M1199 578L1200 579L1199 578z"/>
<path style="fill:#b22c18; stroke:none;" d="M82 579L83 580L82 579z"/>
<path style="fill:#718b78; stroke:none;" d="M83 579L84 580L83 579M1196 579L1197 580L1196 579z"/>
<path style="fill:#b22c18; stroke:none;" d="M1197 579L1198 580L1197 579M85 580L86 581L85 580z"/>
<path style="fill:#729d99; stroke:none;" d="M250 580L251 581L250 580M1029 580L1030 581L1029 580z"/>
<path style="fill:#b22c18; stroke:none;" d="M1194 580L1195 581L1194 580z"/>
<path style="fill:#718b78; stroke:none;" d="M88 581L89 582L88 581M250 581L251 582L250 581M1029 581L1030 582L1029 581M1191 581L1192 582L1191 581z"/>
<path style="fill:#b22c18; stroke:none;" d="M90 582L91 583L90 582M1189 582L1190 583L1189 582z"/>
<path style="fill:#718b78; stroke:none;" d="M93 583L94 584L93 583z"/>
<path style="fill:#729d99; stroke:none;" d="M249 583L250 584L249 583z"/>
<path style="fill:#718b78; stroke:none;" d="M1186 583L1187 584L1186 583z"/>
<path style="fill:#b22c18; stroke:none;" d="M95 584L96 585L95 584z"/>
<path style="fill:#718b78; stroke:none;" d="M249 584L250 585L249 584M1030.33 584.667L1030.67 585.333L1030.33 584.667z"/>
<path style="fill:#b22c18; stroke:none;" d="M1184 584L1185 585L1184 584z"/>
<path style="fill:#718b78; stroke:none;" d="M98 585L99 586L98 585M1181 585L1182 586L1181 585z"/>
<path style="fill:#b22c18; stroke:none;" d="M100 586L101 587L100 586M1179 586L1180 587L1179 586z"/>
<path style="fill:#718b78; stroke:none;" d="M103 587L104 588L103 587z"/>
<path style="fill:#729d99; stroke:none;" d="M248 587L249 588L248 587M1031 587L1032 588L1031 587z"/>
<path style="fill:#718b78; stroke:none;" d="M1176 587L1177 588L1176 587z"/>
<path style="fill:#b22c18; stroke:none;" d="M105 588L106 589L105 588z"/>
<path style="fill:#718b78; stroke:none;" d="M106 588L107 589L106 588M248 588L249 589L248 588M1031 588L1032 589L1031 588M1173 588L1174 589L1173 588z"/>
<path style="fill:#b22c18; stroke:none;" d="M1174 588L1175 589L1174 588z"/>
<path style="fill:#718b78; stroke:none;" d="M108 589L109 590L108 589z"/>
<path style="fill:#729d99; stroke:none;" d="M506 602L503 634L502 634L501 632C488.172 642.367 473.532 654.474 467 670L472 670L472 671C466.534 673.335 458.56 679.086 457 685L462 685L454 705L453 705L448 629C439.31 629.474 435.912 636.698 430.706 642.695C422.633 651.995 413.477 657.144 409 670L413 670L400.468 694.853L394.318 701.147L395 718L397.91 768L407 924L408 924L408 918L409 918L417 929L413 929L413 930C421.646 930.652 430.879 937.936 438 942.397C444.568 946.512 454.666 949.921 462 953L462 954L456 954L468 958L468 959L461 959L461 960C468.555 963.628 468.999 968.234 469 976L470 976L462 828L463 828C463.483 835.58 472.566 859.984 481 861L472 976L473 976L473 968L497 982L497 983L491 983L491 984L502 985L502 986L495 985L511 989L511 990L503 990L503 991L549 991L555 912C573.133 919.539 591.138 927.432 611 929L611 921L612 921L610 993L698 993L696.911 970L695 915L696 915L696 923C707.395 920.618 717.052 914.181 728 910.752C734.606 908.684 742.887 907.279 747 901L748 901L753.039 968L754 993L878 993L878 992L756 992L756 991L777 991L777 990L769 990L769 989L785 985L778 986L778 985L789 984L789 983L783 983L783 982L819 960L819 959L812 959L812 958L824 954L818 954L818 953C825.334 949.921 835.432 946.512 842 942.397C849.121 937.936 858.354 930.652 867 930L867 929L863 929L868.647 920.791L866.286 897L861.086 850L846.285 719L835 629C827.989 627.032 821.685 619.417 817 614L834 619C814.083 606.816 782.652 604.302 760 599.8C698.088 587.494 633.669 586.177 571 592.17C549.207 594.254 527.73 600.282 506 602z"/>
<path style="fill:#718b78; stroke:none;" d="M1171 589L1172 590L1171 589z"/>
<path style="fill:#b22c18; stroke:none;" d="M110 590L111 591L110 590z"/>
<path style="fill:#718b78; stroke:none;" d="M111 590L112 591L111 590z"/>
<path style="fill:#729d99; stroke:none;" d="M247 590L248 591L247 590z"/>
<path style="fill:#718b78; stroke:none;" d="M323.333 590.667L323.667 591.333L323.333 590.667z"/>
<path style="fill:#729d99; stroke:none;" d="M1032 590L1033 591L1032 590z"/>
<path style="fill:#718b78; stroke:none;" d="M1168 590L1169 591L1168 590z"/>
<path style="fill:#b22c18; stroke:none;" d="M1169 590L1170 591L1169 590z"/>
<path style="fill:#718b78; stroke:none;" d="M113 591L114 592L113 591M247 591L248 592L247 591M682 591L683 592L682 591M1032.33 591.667L1032.67 592.333L1032.33 591.667M1166 591L1167 592L1166 591z"/>
<path style="fill:#b22c18; stroke:none;" d="M115 592L116 593L115 592z"/>
<path style="fill:#718b78; stroke:none;" d="M116 592L117 593L116 592M1163 592L1164 593L1163 592z"/>
<path style="fill:#b22c18; stroke:none;" d="M1164 592L1165 593L1164 592M118 593L119 594L118 593z"/>
<path style="fill:#718b78; stroke:none;" d="M579 593L580 594L579 593M701 593L701 594L728 602L728 596L701 593z"/>
<path style="fill:#b22c18; stroke:none;" d="M1161 593L1162 594L1161 593M120 594L117.41 661.985L92.6204 736.831L81 777L80 777L79 757L78 757L78 1013L247 1013C247 917.862 245.293 822.589 235.166 728C232.486 702.97 229.534 677.709 224.6 653C223.259 646.28 223.72 632.991 219.062 627.728C213.946 621.948 196.394 619.875 189 617.848C165.486 611.402 143.408 600.389 120 594z"/>
<path style="fill:#729d99; stroke:none;" d="M246 594L247 595L246 594z"/>
<path style="fill:#718b78; stroke:none;" d="M324 594L324 598L325 598L324 594z"/>
<path style="fill:#729d99; stroke:none;" d="M1033 594L1034 595L1033 594z"/>
<path style="fill:#b22c18; stroke:none;" d="M1033 1013L1202 1013L1202 757L1201 757L1200 777L1199 777L1187.38 736.831L1162.59 661.985L1160 594C1136.59 600.389 1114.51 611.402 1091 617.848C1083.61 619.875 1066.05 621.948 1060.94 627.728C1056.28 632.991 1056.74 646.28 1055.4 653C1050.47 677.709 1047.51 702.97 1044.83 728C1034.71 822.589 1033 917.862 1033 1013z"/>
<path style="fill:#718b78; stroke:none;" d="M124 595L125 596L124 595M246 595L247 596L246 595M1033 595L1034 596L1033 595M1155 595L1156 596L1155 595z"/>
<path style="fill:#729d99; stroke:none;" d="M245 597L246 598L245 597M1034 597L1035 598L1034 597z"/>
<path style="fill:#718b78; stroke:none;" d="M132 598L133 599L132 598M245 598L246 599L245 598M1034.33 598.667L1034.67 599.333L1034.33 598.667M1147 598L1148 599L1147 598M140 601L141 602L140 601z"/>
<path style="fill:#729d99; stroke:none;" d="M244 601L245 602L244 601M1035 601L1036 602L1035 601z"/>
<path style="fill:#718b78; stroke:none;" d="M1139 601L1140 602L1139 601M143 602L144 603L143 602M244 602L245 603L244 602M1035 602L1036 603L1035 602M1136 602L1137 603L1136 602M148 604L149 605L148 604z"/>
<path style="fill:#729d99; stroke:none;" d="M243 604L244 605L243 604M499 604L500 605L499 604M1036 604L1037 605L1036 604z"/>
<path style="fill:#718b78; stroke:none;" d="M1131 604L1132 605L1131 604M150.667 605.333L151.333 605.667L150.667 605.333M243 605L244 606L243 605z"/>
<path style="fill:#729d99; stroke:none;" d="M496 605L497 606L496 605z"/>
<path style="fill:#718b78; stroke:none;" d="M1036.33 605.667L1036.67 606.333L1036.33 605.667M1128.67 605.333L1129.33 605.667L1128.67 605.333z"/>
<path style="fill:#4b3120; stroke:none;" d="M149 606L150 607L149 606z"/>
<path style="fill:#718b78; stroke:none;" d="M153.667 606.333L154.333 606.667L153.667 606.333z"/>
<path style="fill:#729d99; stroke:none;" d="M490 606L491 607L490 606z"/>
<path style="fill:#718b78; stroke:none;" d="M1125.67 606.333L1126.33 606.667L1125.67 606.333z"/>
<path style="fill:#4b3120; stroke:none;" d="M1130 606L1131 607L1130 606z"/>
<path style="fill:#718b78; stroke:none;" d="M156.667 607.333L157.333 607.667L156.667 607.333M1122.67 607.333L1123.33 607.667L1122.67 607.333M159.667 608.333L160.333 608.667L159.667 608.333z"/>
<path style="fill:#729d99; stroke:none;" d="M242 608L243 609L242 608M1037 608L1038 609L1037 608z"/>
<path style="fill:#718b78; stroke:none;" d="M1119.67 608.333L1120.33 608.667L1119.67 608.333M162.667 609.333L163.333 609.667L162.667 609.333M242 609L243 610L242 609M1037 609L1038 610L1037 609M1116.67 609.333L1117.33 609.667L1116.67 609.333M165.667 610.333L166.333 610.667L165.667 610.333M1113.67 610.333L1114.33 610.667L1113.67 610.333M168.667 611.333L169.333 611.667L168.667 611.333z"/>
<path style="fill:#729d99; stroke:none;" d="M241 611L242 612L241 611M1038 611L1039 612L1038 611z"/>
<path style="fill:#718b78; stroke:none;" d="M1110.67 611.333L1111.33 611.667L1110.67 611.333M172 612L173 613L172 612M241 612L242 613L241 612M1038.33 612.667L1038.67 613.333L1038.33 612.667M1107 612L1108 613L1107 612M174.667 613.333L175.333 613.667L174.667 613.333M1104.67 613.333L1105.33 613.667L1104.67 613.333M178 614L179 615L178 614M1101 614L1102 615L1101 614M181 615L182 616L181 615z"/>
<path style="fill:#729d99; stroke:none;" d="M240 615L241 616L240 615M1039 615L1040 616L1039 615z"/>
<path style="fill:#718b78; stroke:none;" d="M1098 615L1099 616L1098 615M184 616L185 617L184 616M240 616L241 617L240 616M1039 616L1040 617L1039 616M1095 616L1096 617L1095 616M187 617L188 618L187 617z"/>
<path style="fill:#729d99; stroke:none;" d="M188 617L189 618L188 617M1091 617L1092 618L1091 617z"/>
<path style="fill:#718b78; stroke:none;" d="M1092 617L1093 618L1092 617z"/>
<path style="fill:#729d99; stroke:none;" d="M191 618L192 619L191 618M239 618L240 619L239 618M446 618L447 619L446 618M1040 618L1041 619L1040 618M1088 618L1089 619L1088 618z"/>
<path style="fill:#718b78; stroke:none;" d="M239 619L240 620L239 619z"/>
<path style="fill:#729d99; stroke:none;" d="M440 620L440 621L445 620L440 620z"/>
<path style="fill:#718b78; stroke:none;" d="M1040.33 619.667L1040.67 620.333L1040.33 619.667z"/>
<path style="fill:#729d99; stroke:none;" d="M436 621L436 622L439 622L436 621M238 622L239 623L238 622M434 622L435 623L434 622M1041 622L1042 623L1041 622z"/>
<path style="fill:#718b78; stroke:none;" d="M207 623L208 624L207 623M238 623L239 624L238 623z"/>
<path style="fill:#729d99; stroke:none;" d="M431 623L432 624L431 623z"/>
<path style="fill:#718b78; stroke:none;" d="M1041 623L1042 624L1041 623M1072 623L1073 624L1072 623z"/>
<path style="fill:#729d99; stroke:none;" d="M428 624L429 625L428 624M834 624L834 627L835 627L834 624M237 625L238 626L237 625M425.667 625.333L426.333 625.667L425.667 625.333M447 625L447 628L448 628L447 625M1042 625L1043 626L1042 625z"/>
<path style="fill:#718b78; stroke:none;" d="M237 626L238 627L237 626z"/>
<path style="fill:#729d99; stroke:none;" d="M422.667 626.333L423.333 626.667L422.667 626.333z"/>
<path style="fill:#718b78; stroke:none;" d="M1042.33 626.667L1042.67 627.333L1042.33 626.667z"/>
<path style="fill:#729d99; stroke:none;" d="M417 628L418 629L417 628M236 629L237 630L236 629M415 629L416 630L415 629M1043 629L1044 630L1043 629z"/>
<path style="fill:#718b78; stroke:none;" d="M236 630L237 631L236 630z"/>
<path style="fill:#729d99; stroke:none;" d="M412 630L413 631L412 630z"/>
<path style="fill:#718b78; stroke:none;" d="M1043 630L1044 631L1043 630z"/>
<path style="fill:#729d99; stroke:none;" d="M409 631L410 632L409 631z"/>
<path style="fill:#718b78; stroke:none;" d="M234 632L235 633L234 632z"/>
<path style="fill:#729d99; stroke:none;" d="M407 632L408 633L407 632z"/>
<path style="fill:#718b78; stroke:none;" d="M1045 632L1046 633L1045 632z"/>
<path style="fill:#729d99; stroke:none;" d="M399 635L400 636L399 635z"/>
<path style="fill:#718b78; stroke:none;" d="M235 636L235 639L236 639L235 636M1044 636L1044 639L1045 639L1044 636M501 638L502 639L501 638M1002.33 640.667L1002.67 641.333L1002.33 640.667M236 641L236 644L237 644L236 641M1043 641L1043 644L1044 644L1043 641M1002 643L1003 644L1002 643z"/>
<path style="fill:#4b3120; stroke:none;" d="M369 646L370 647L369 646z"/>
<path style="fill:#718b78; stroke:none;" d="M1042 646L1042 649L1043 649L1042 646M223 647L224 648L223 647M237.333 647.667L237.667 648.333L237.333 647.667z"/>
<path style="fill:#4b3120; stroke:none;" d="M367 647L368 648L367 647z"/>
<path style="fill:#718b78; stroke:none;" d="M1056 647L1057 648L1056 647z"/>
<path style="fill:#4b3120; stroke:none;" d="M365 648L366 649L365 648M363 649L364 650L363 649z"/>
<path style="fill:#718b78; stroke:none;" d="M273.333 650.667L273.667 651.333L273.333 650.667z"/>
<path style="fill:#4b3120; stroke:none;" d="M361 650L362 651L361 650z"/>
<path style="fill:#718b78; stroke:none;" d="M224 652L225 653L224 652M238 652L238 655L239 655L238 652M1002.33 652.667L1002.67 653.333L1002.33 652.667M1041 652L1041 655L1042 655L1041 652M1055 652L1056 653L1055 652M274.333 654.667L274.667 655.333L274.333 654.667M1003 656L1004 657L1003 656M1040 657L1040 661L1041 661L1040 657M239 658L239 661L240 661L239 658M1039 663L1039 667L1040 667L1039 663M240 664L240 667L241 667L240 664M1038 669L1038 673L1039 673L1038 669M241 670L241 673L242 673L241 670M1037 676L1037 680L1038 680L1037 676M242 677L242 680L243 680L242 677M1036 682L1036 687L1037 687L1036 682M229 683L230 684L229 683M243 683L243 687L244 687L243 683M1050 683L1051 684L1050 683M244 690L244 693L245 693L244 690M1035 690L1035 693L1036 693L1035 690M1033 691L1033 694L1034 694L1033 691z"/>
<path style="fill:#729d99; stroke:none;" d="M394 696L395 697L394 696z"/>
<path style="fill:#718b78; stroke:none;" d="M1034 696L1034 701L1035 701L1034 696M245 698L245 702L246 702L245 698M1032.33 698.667L1032.67 699.333L1032.33 698.667z"/>
<path style="fill:#4b3120; stroke:none;" d="M1008 703L1009 704L1008 703z"/>
<path style="fill:#718b78; stroke:none;" d="M1033 705L1033 709L1034 709L1033 705M246 706L246 709L247 709L246 706z"/>
<path style="fill:#4b3120; stroke:none;" d="M1012 706L1014 708L1012 706z"/>
<path style="fill:#718b78; stroke:none;" d="M1031 706L1030 711L1031 711L1031 706M454.333 708.667L454.667 709.333L454.333 708.667z"/>
<path style="fill:#4b3120; stroke:none;" d="M1016 709L1017 710L1016 709M1018 710L1021 713L1018 710z"/>
<path style="fill:#718b78; stroke:none;" d="M1032 712L1032 717L1033 717L1032 712M247 713L247 717L248 717L247 713M454 713L454 720L455 720L454 713z"/>
<path style="fill:#4b3120; stroke:none;" d="M1022 713L1025 716L1022 713z"/>
<path style="fill:#729d99; stroke:none;" d="M904 717L904 741L905 741L904 717z"/>
<path style="fill:#718b78; stroke:none;" d="M455 724L455 730L456 730L455 724z"/>
<path style="fill:#729d99; stroke:none;" d="M1031 724L1032 725L1031 724M248 725L249 726L248 725z"/>
<path style="fill:#4b3120; stroke:none;" d="M249 726L250 727L249 726z"/>
<path style="fill:#729d99; stroke:none;" d="M1030.33 733.667L1030.67 734.333L1030.33 733.667M249 734L250 735L249 734M904 742L904 792C904 797.251 901.976 806.001 908 808L909 800C914.827 799.547 918.891 792.425 912 790L912.682 768.143L907.148 759.981L904 742M1029.33 742.667L1029.67 743.333L1029.33 742.667M250 743L251 744L250 743M1028.33 753.667L1028.67 754.333L1028.33 753.667M251 754L252 755L251 754M1027.33 764.667L1027.67 765.333L1027.33 764.667M252 765L253 766L252 765z"/>
<path style="fill:#4b3120; stroke:none;" d="M253 767L254 768L253 767z"/>
<path style="fill:#729d99; stroke:none;" d="M1026.33 777.667L1026.67 778.333L1026.33 777.667M253 778L254 779L253 778z"/>
<path style="fill:#718b78; stroke:none;" d="M459 787L459 791L460 791L459 787z"/>
<path style="fill:#729d99; stroke:none;" d="M1025 789L1025 792L1026 792L1025 789M254.333 790.667L254.667 791.333L254.333 790.667z"/>
<path style="fill:#4b3120; stroke:none;" d="M255 793L255 796L256 796L255 793z"/>
<path style="fill:#718b78; stroke:none;" d="M460 800L460 804L461 804L460 800z"/>
<path style="fill:#729d99; stroke:none;" d="M1024 806L1024 809L1025 809L1024 806M255 808L256 809L255 808z"/>
<path style="fill:#718b78; stroke:none;" d="M460 811L461 812L460 811z"/>
<path style="fill:#729d99; stroke:none;" d="M905 812L905 814L907 814L907 812L905 812z"/>
<path style="fill:#718b78; stroke:none;" d="M461 816L461 825L462 825L461 816z"/>
<path style="fill:#729d99; stroke:none;" d="M356 819L357 820L356 819M905 821L905 832L906 832L905 821M1023 822L1023 826L1024 826L1023 822M256.333 824.667L256.667 825.333L256.333 824.667z"/>
<path style="fill:#4b3120; stroke:none;" d="M257 827L257 830L258 830L257 827z"/>
<path style="fill:#729d99; stroke:none;" d="M905 834L905 879L906 879C906 866.258 909.91 845.701 905 834z"/>
<path style="fill:#718b78; stroke:none;" d="M482 843L482 846L483 846L482 843z"/>
<path style="fill:#729d99; stroke:none;" d="M1022 844L1022 849L1023 849L1022 844M257 848L258 849L257 848z"/>
<path style="fill:#718b78; stroke:none;" d="M481 849L481 853L482 853L481 849M481.333 858.667L481.667 859.333L481.333 858.667z"/>
<path style="fill:#729d99; stroke:none;" d="M1021 870L1021 875L1022 875L1021 870M258 874L259 875L258 874z"/>
<path style="fill:#4b3120; stroke:none;" d="M259 875L259 882L260 882L259 875z"/>
<path style="fill:#718b78; stroke:none;" d="M747 896L747 900L748 900L747 896M556 905L556 910L557 910L556 905z"/>
<path style="fill:#729d99; stroke:none;" d="M869 924L870 925L869 924M869 926L869 933L870 933L869 926M408 929L408 938L409 938L408 929M870 935L870 940L871 940L870 935M408 942L409 943L408 942M871 943L872 944L871 943M1020 944L1021 945L1020 944M1020.33 946.667L1020.67 947.333L1020.33 946.667M1020 951L1021 952L1020 951z"/>
<path style="fill:#718b78; stroke:none;" d="M685 991L685 992L696 992L685 991z"/>
<path style="fill:#729d99; stroke:none;" d="M344 992L344 993L382 993C371.964 988.789 354.911 992 344 992M411 992L411 993L549 993C538.02 988.393 518.944 992 507 992L411 992M583 992L583 993L593 993L583 992M906 992L906 993L936 993L906 992M949 992L950 993L949 992z"/>
<path style="fill:#718b78; stroke:none;" d="M54 993L54 994L75 994L54 993z"/>
<path style="fill:#729d99; stroke:none;" d="M75 993L76 994L75 993z"/>
<path style="fill:#718b78; stroke:none;" d="M76 993L77 994L76 993M1203 993L1204 994L1203 993z"/>
<path style="fill:#729d99; stroke:none;" d="M1204 993L1205 994L1204 993z"/>
<path style="fill:#718b78; stroke:none;" d="M1205 993L1205 994L1226 994L1205 993z"/>
<path style="fill:#f5c025; stroke:none;" d="M51 994L52 995L51 994z"/>
<path style="fill:#718b78; stroke:none;" d="M53 994L54 995L53 994M1226 994L1227 995L1226 994z"/>
<path style="fill:#f5c025; stroke:none;" d="M1228 994L1234 1000L1228 994M50 995L51 996L50 995z"/>
<path style="fill:#718b78; stroke:none;" d="M52 995L53 996L52 995z"/>
<path style="fill:#f5c025; stroke:none;" d="M49 996L50 997L49 996M48 997L49 998L48 997M47 998L48 999L47 998M46 999L47 1000L46 999M1234 1001L1235 1002L1234 1001M43 1003L34 1013L43 1003z"/>
<path style="fill:#b22c18; stroke:none;" d="M260.333 1003.67L260.667 1004.33L260.333 1003.67M1019.33 1003.67L1019.67 1004.33L1019.33 1003.67z"/>
<path style="fill:#f5c025; stroke:none;" d="M1236 1003L1246 1013L1236 1003z"/>
<path style="fill:#4b3120; stroke:none;" d="M41 1006L42 1007L41 1006z"/>
<path style="fill:#729d99; stroke:none;" d="M42 1006L43 1007L42 1006M1237 1006L1239 1008L1237 1006z"/>
<path style="fill:#4b3120; stroke:none;" d="M1238 1006L1239 1007L1238 1006z"/>
<path style="fill:#729d99; stroke:none;" d="M41 1007L42 1008L41 1007z"/>
<path style="fill:#b22c18; stroke:none;" d="M247 1013L247 1014L256 1014L247 1013M1024 1013L1024 1014L1033 1014L1024 1013z"/>
<path style="fill:#f5c025; stroke:none;" d="M33 1014L34 1015L33 1014z"/>
<path style="fill:#718b78; stroke:none;" d="M35 1014L36 1015L35 1014M1244 1014L1245 1015L1244 1014z"/>
<path style="fill:#f5c025; stroke:none;" d="M1246 1014L1256 1024L1246 1014M31 1016L24 1024L31 1016M23 1025L24 1026L23 1025M1256 1025L1266 1035L1256 1025M21 1027L12 1037L20 1032L21 1027z"/>
<path style="fill:#729d99; stroke:none;" d="M1258 1029L1260 1031L1258 1029z"/>
<path style="fill:#4b3120; stroke:none;" d="M1259 1029L1260 1030L1259 1029M19 1030L20 1031L19 1030z"/>
<path style="fill:#729d99; stroke:none;" d="M20 1030L21 1031L20 1030z"/>
<path style="fill:#f5c025; stroke:none;" d="M1267 1036L1268 1037L1267 1036z"/>
<path style="fill:#718b78; stroke:none;" d="M14 1037L15 1038L14 1037z"/>
<path style="fill:#f5c025; stroke:none;" d="M11 1038L2 1048L11 1038M1268 1038L1276 1046L1268 1038M1 1049L2 1050L1 1049M1278 1049L1279 1050L1278 1049M0 1050L1 1051L0 1050M1279 1050L1280 1051L1279 1050z"/>
<path style="fill:#718b78; stroke:none;" d="M1279 1052L1280 1053L1279 1052z"/>
<path style="fill:#b22c18; stroke:none;" d="M380 1054L380 1055L422 1055L422 1056L413 1056L413 1087L363 1087L363 1088L921 1088L921 1087L872 1087L872 1056L863 1056L863 1055L905 1055C893.544 1050.19 873.468 1054 861 1054C826.71 1054 792.223 1054.82 758 1053.74C632.154 1049.78 505.912 1054 380 1054M373.667 1054.33L374.333 1054.67L373.667 1054.33M906 1054L906 1055L912 1055L906 1054M919 1054L920 1055L919 1054z"/>
<path style="fill:#4b3120; stroke:none;" d="M430 1055L431 1056L430 1055M853.667 1055.33L854.333 1055.67L853.667 1055.33M857 1055L857 1056L862 1056L857 1055M429.667 1086.33L430.333 1086.67L429.667 1086.33z"/>
<path style="fill:#f5c025; stroke:none;" d="M0 1090L0 1091L28 1091L28 1274L29 1274L29 1090L0 1090M30 1090L30 1274L31 1274L31 1145L31 1108L30 1090M1249 1090L1249 1274L1250 1274L1250 1145L1250 1108L1249 1090M1251 1090L1251 1274L1252 1274L1252 1091L1280 1091L1251 1090z"/>
<path style="fill:#4b3120; stroke:none;" d="M0 1091L0 1274L28 1274L28 1091L0 1091M1252 1091L1252 1274L1280 1274L1280 1091L1252 1091z"/>
<path style="fill:#b22c18; stroke:none;" d="M886 1201L886 1241L885 1241L885 1233L853 1231L853 1213L852 1213L852 1274L887 1274L887 1224L886 1201M577 1212L577 1274C584.382 1274 604.582 1277.58 610.397 1272.97C613.351 1270.63 612 1263.32 612 1260C612 1247.65 611 1235.39 611 1223L610 1223L610 1233L578 1235L577 1212M840 1213L840 1247L839 1247L839 1241L807 1238L807 1226L806 1226L806 1274L841 1274L841 1233L840 1213M335 1221L335 1239L334 1239C329.817 1234.21 309.07 1237.55 303 1239L303 1234L302 1234C299.387 1242.84 300.999 1253.81 301 1263C301 1265.8 300.082 1270.98 302.603 1272.97C308.418 1277.58 328.618 1274 336 1274L336 1238L335 1221M898 1227L898 1230L899 1230L898 1227M1161 1229L1161 1261L1160 1261L1160 1254L1130 1250L1130 1254L1129 1254L1129 1236L1128 1236L1128 1274L1162 1274C1162 1261.26 1165.91 1240.7 1161 1229M898 1231L898 1274L933 1274L933 1231L932 1231L932 1249L899 1246L898 1231M1036 1233L1036 1274L1070 1274L1070 1243L1069 1243L1069 1264L1068 1264C1065.74 1256 1045.21 1258 1038 1258L1038 1264L1037 1264L1036 1233z"/>
<path style="fill:#4b3120; stroke:none;" d="M578.333 1238.67L578.667 1239.33L578.333 1238.67M334.333 1240.67L334.667 1241.33L334.333 1240.67z"/>
<path style="fill:#b22c18; stroke:none;" d="M1247 1241L1248 1242L1247 1241M243 1243L243 1274L244 1274L243 1243z"/>
<path style="fill:#4b3120; stroke:none;" d="M578.333 1243.67L578.667 1244.33L578.333 1243.67M885 1244L886 1245L885 1244z"/>
<path style="fill:#b22c18; stroke:none;" d="M990 1244L990 1274L991 1274L990 1244M1247 1245L1247 1263L1246 1263L1222 1259L1222 1263L1221 1263L1221 1248L1220 1248C1220 1253.94 1216.16 1267.51 1220.03 1272.4C1223.64 1276.95 1242.44 1274 1248 1274L1247 1245M32 1247L33 1248L32 1247M32 1251L32 1274L33 1274L32 1251z"/>
<path style="fill:#4b3120; stroke:none;" d="M1129.33 1255.67L1129.67 1256.33L1129.33 1255.67z"/>
<path style="fill:#b22c18; stroke:none;" d="M210 1256L210 1274L211 1274L210 1256M1023 1258L1024 1259L1023 1258M1023 1261L1023 1274L1024 1274L1023 1261M118 1262L118 1273L119 1273L118 1262z"/>
<path style="fill:#4b3120; stroke:none;" d="M1246.33 1264.67L1246.67 1265.33L1246.33 1264.67z"/>
<path style="fill:#b22c18; stroke:none;" d="M60 1265L59 1273L60 1265z"/>
<path style="fill:#4b3120; stroke:none;" d="M1068.33 1265.67L1068.67 1266.33L1068.33 1265.67M1221 1265L1222 1266L1221 1265z"/>
<path style="fill:#b22c18; stroke:none;" d="M992 1268L992 1274L1022 1273L1022 1271L992 1268M151.333 1271.67L151.667 1272.33L151.333 1271.67z"/>
</svg>
